<svg width="39" height="31" viewBox="0 0 39 31" fill="none" xmlns="http://www.w3.org/2000/svg">
<path d="M39 1.9375C39 0.866063 38.1264 0 37.05 0H11.7C10.6236 0 9.75 0.866063 9.75 1.9375C9.75 3.00894 10.6236 3.875 11.7 3.875H37.05C38.1264 3.875 39 3.00894 39 1.9375ZM1.95 13.5625H37.05C38.1264 13.5625 39 14.4286 39 15.5C39 16.5714 38.1264 17.4375 37.05 17.4375H1.95C0.8736 17.4375 0 16.5714 0 15.5C0 14.4286 0.8736 13.5625 1.95 13.5625ZM19.5 27.125H37.05C38.1264 27.125 39 27.9911 39 29.0625C39 30.1339 38.1264 31 37.05 31H19.5C18.4236 31 17.55 30.1339 17.55 29.0625C17.55 27.9911 18.4236 27.125 19.5 27.125Z" fill="black"/>
</svg>
