<svg
        xmlns="http://www.w3.org/2000/svg"
        width="21"
        height="21"
        viewBox="0 0 21 21"
        fill="none"
        class="arrow-left my-auto"
>
    <path
            d="M5.76277 9.26273L12.7628 2.26273C13.0928 1.94395 13.5349 1.76756 13.9937 1.77155C14.4526 1.77554 14.8915 1.95958 15.216 2.28405C15.5404 2.60851 15.7245 3.04743 15.7284 3.50628C15.7324 3.96512 15.556 4.40718 15.2373 4.73723L9.47452 10.5L15.2373 16.2627C15.556 16.5928 15.7324 17.0348 15.7284 17.4937C15.7245 17.9525 15.5404 18.3914 15.216 18.7159C14.8915 19.0404 14.4526 19.2244 13.9937 19.2284C13.5349 19.2324 13.0928 19.056 12.7628 18.7372L5.76277 11.7372C5.4347 11.4091 5.25039 10.964 5.25039 10.5C5.25039 10.0359 5.4347 9.5909 5.76277 9.26273Z"
            fill="black"
    />
</svg>
