<svg
        xmlns="http://www.w3.org/2000/svg"
        width="21"
        height="21"
        viewBox="0 0 21 21"
        fill="none"
        class="arrow-right my-auto"
>
    <path
            d="M15.2372 9.26273L8.23723 2.26273C7.90718 1.94395 7.46512 1.76756 7.00628 1.77155C6.54743 1.77554 6.10851 1.95958 5.78405 2.28405C5.45958 2.60851 5.27554 3.04743 5.27155 3.50628C5.26756 3.96512 5.44395 4.40718 5.76273 4.73723L11.5255 10.5L5.76273 16.2627C5.44395 16.5928 5.26756 17.0348 5.27155 17.4937C5.27554 17.9525 5.45958 18.3914 5.78405 18.7159C6.10851 19.0404 6.54743 19.2244 7.00628 19.2284C7.46512 19.2324 7.90718 19.056 8.23723 18.7372L15.2372 11.7372C15.5653 11.4091 15.7496 10.964 15.7496 10.5C15.7496 10.0359 15.5653 9.5909 15.2372 9.26273Z"
            fill="black"
    />
</svg>
