<svg width="38" height="38" viewBox="0 0 38 38" fill="none" xmlns="http://www.w3.org/2000/svg">
<g id="close 1" clip-path="url(#clip0_63_2724)">
<path id="Vector" d="M22.4814 19.0311L37.2778 4.23425C38.2408 3.27178 38.2408 1.71558 37.2778 0.753108C36.3153 -0.209369 34.7592 -0.209369 33.7967 0.753108L18.9998 15.55L4.20334 0.753108C3.24041 -0.209369 1.68467 -0.209369 0.722196 0.753108C-0.240732 1.71558 -0.240732 3.27178 0.722196 4.23425L15.5186 19.0311L0.722196 33.828C-0.240732 34.7905 -0.240732 36.3467 0.722196 37.3092C1.20186 37.7893 1.83254 38.0305 2.46277 38.0305C3.093 38.0305 3.72323 37.7893 4.20334 37.3092L18.9998 22.5123L33.7967 37.3092C34.2768 37.7893 34.907 38.0305 35.5373 38.0305C36.1675 38.0305 36.7977 37.7893 37.2778 37.3092C38.2408 36.3467 38.2408 34.7905 37.2778 33.828L22.4814 19.0311Z" fill="black"/>
</g>
<defs>
<clipPath id="clip0_63_2724">
<rect width="38" height="38" fill="white"/>
</clipPath>
</defs>
</svg>
