<svg xmlns="http://www.w3.org/2000/svg" width="49" height="48" viewBox="0 0 49 48" fill="none">
    <path d="M42.4094 0H6.35847C3.04478 0 0.349976 2.691 0.349976 6V42C0.349976 45.309 3.04478 48 6.35847 48H42.4094C45.7231 48 48.4179 45.309 48.4179 42V6C48.4179 2.691 45.7231 0 42.4094 0Z" fill="white"/>
    <path d="M40.9073 24H33.3967V18C33.3967 16.344 34.7426 16.5 36.401 16.5H39.4052V9H33.3967C28.4187 9 24.384 13.029 24.384 18V24H18.3755V31.5H24.384V48H33.3967V31.5H37.9031L40.9073 24Z" fill="#D02431"/>
</svg>
