<svg xmlns="http://www.w3.org/2000/svg" width="49" height="48" viewBox="0 0 49 48" fill="none">
    <path d="M3.39217 3.33249C-0.374315 7.23847 0.396556 11.3877 0.396556 23.9929C0.396556 34.4607 -1.43277 44.9544 8.14122 47.4248C11.1308 48.1924 37.6201 48.1924 40.6057 47.4208C44.5919 46.3939 47.8351 43.1659 48.2785 37.5372C48.3404 36.7516 48.3404 11.2481 48.2765 10.4466C47.8052 4.45105 44.1086 0.995688 39.2377 0.295842C38.1213 0.134339 37.8977 0.0864867 32.17 0.0765174C11.8538 0.0864867 7.4003 -0.816733 3.39217 3.33249Z" fill="white"/>
    <path d="M24.3573 6.33492C17.1059 6.33492 10.22 5.69091 7.58983 12.4302C6.50342 15.2136 6.66119 18.8285 6.66119 24.0045C6.66119 28.5466 6.5154 32.8154 7.58983 35.5769C10.214 42.3202 17.1558 41.6741 24.3533 41.6741C31.2971 41.6741 38.4567 42.3959 41.1188 35.5769C42.2072 32.7656 42.0474 29.2045 42.0474 24.0045C42.0474 17.1018 42.4288 12.6455 39.0757 9.2998C35.6807 5.91023 31.0894 6.33492 24.3493 6.33492H24.3573ZM22.7716 9.51912C37.8975 9.4952 39.8227 7.81637 38.7602 31.1386C38.3828 39.3872 32.092 38.482 24.3593 38.482C10.2599 38.482 9.85452 38.0792 9.85452 23.9966C9.85452 9.75041 10.9729 9.5271 22.7716 9.51513V9.51912ZM33.8035 12.4521C32.6312 12.4521 31.6806 13.4012 31.6806 14.5716C31.6806 15.742 32.6312 16.691 33.8035 16.691C34.9757 16.691 35.9264 15.742 35.9264 14.5716C35.9264 13.4012 34.9757 12.4521 33.8035 12.4521ZM24.3573 14.9305C19.3386 14.9305 15.2706 18.994 15.2706 24.0045C15.2706 29.0151 19.3386 33.0766 24.3573 33.0766C29.3759 33.0766 33.442 29.0151 33.442 24.0045C33.442 18.994 29.3759 14.9305 24.3573 14.9305ZM24.3573 18.1147C32.1559 18.1147 32.1659 29.8944 24.3573 29.8944C16.5607 29.8944 16.5487 18.1147 24.3573 18.1147Z" fill="#D02431"/>
</svg>
