<svg xmlns="http://www.w3.org/2000/svg" width="33" height="30" viewBox="0 0 33 30" fill="none">
    <g clip-path="url(#clip0_1_358)">
        <path d="M19.1927 18.3803C18.4068 18.8779 17.4939 19.1409 16.5527 19.1409C15.6116 19.1409 14.6987 18.8779 13.9128 18.3803L0.968385 10.1846C0.896568 10.1392 0.826603 10.0918 0.758057 10.043V23.4725C0.758057 25.0123 2.07376 26.2342 3.66606 26.2342H29.4393C31.0606 26.2342 32.3473 24.9847 32.3473 23.4725V10.043C32.2786 10.0918 32.2085 10.1394 32.1365 10.1849L19.1927 18.3803Z" fill="#D02431"/>
        <path d="M1.9951 8.72219L14.9395 16.9179C15.4295 17.2282 15.9911 17.3833 16.5526 17.3833C17.1143 17.3833 17.6759 17.2281 18.1659 16.9179L31.1103 8.72219C31.8849 8.23205 32.3474 7.41174 32.3474 6.52639C32.3474 5.00406 31.0432 3.76562 29.4403 3.76562H3.66507C2.06216 3.76568 0.758057 5.00412 0.758057 6.52785C0.758057 7.41174 1.22054 8.23205 1.9951 8.72219Z" fill="#D02431"/>
    </g>
    <defs>
        <clipPath id="clip0_1_358">
            <rect width="31.5893" height="30" fill="white" transform="translate(0.758057)"/>
        </clipPath>
    </defs>
</svg>
