<svg xmlns="http://www.w3.org/2000/svg" width="37" height="36" viewBox="0 0 37 36" fill="none">
    <g clip-path="url(#clip0_1_324)">
        <path d="M18.2834 0C10.8299 0 4.76428 6.099 4.76428 13.5975C4.76428 24.252 17.0126 35.253 17.5338 35.715C17.7486 35.9055 18.016 36 18.2834 36C18.5508 36 18.8181 35.9055 19.0329 35.7165C19.5542 35.253 31.8025 24.252 31.8025 13.5975C31.8025 6.099 25.7369 0 18.2834 0ZM18.2834 21C14.142 21 10.7728 17.6355 10.7728 13.5C10.7728 9.3645 14.142 6 18.2834 6C22.4247 6 25.794 9.3645 25.794 13.5C25.794 17.6355 22.4247 21 18.2834 21Z" fill="#D02431"/>
    </g>
    <defs>
        <clipPath id="clip0_1_324">
            <rect width="36.0509" height="36" fill="white" transform="translate(0.257935)"/>
        </clipPath>
    </defs>
</svg>
