<svg xmlns="http://www.w3.org/2000/svg" width="47" height="47" viewBox="0 0 47 47" fill="none">
    <g clip-path="url(#clip0_689_408)">
        <path d="M45.4187 13.8128C44.9935 11.9077 43.5731 10.359 41.7123 9.77037C38.3131 8.67997 24.5532 8.08402 24.5532 8.08402C24.5532 8.08402 10.7937 7.48807 7.31447 8.2446C5.44593 8.67138 3.85912 10.1264 3.27082 11.9873C2.21666 15.3877 1.9077 22.5212 1.9077 22.5212C1.9077 22.5212 1.59718 29.6906 2.35495 33.1335C2.78049 35.0383 4.20057 36.5873 6.06175 37.176C9.49683 38.2679 23.2205 38.8623 23.2205 38.8623C23.2205 38.8623 36.98 39.4582 40.4592 38.7017C42.3643 38.2765 43.913 36.8561 44.5016 34.9952C45.5558 31.5945 45.8647 24.4613 45.8647 24.4613C45.8647 24.4613 46.2115 17.2932 45.4187 13.8128Z" fill="#FF0000"/>
        <path d="M19.2203 29.8736L30.9478 23.779L19.7911 16.6932L19.2203 29.8736Z" fill="white"/>
    </g>
    <defs>
        <clipPath id="clip0_689_408">
            <rect width="44" height="44" fill="white" transform="translate(2.8606 0.520996) rotate(2.48)"/>
        </clipPath>
    </defs>
</svg>
