<svg xmlns="http://www.w3.org/2000/svg" width="51" height="48" viewBox="0 0 51 48" fill="none">
    <g clip-path="url(#clip0_1_367)">
        <path d="M43.7412 0H6.98279C3.17632 0 0.0905762 2.9305 0.0905762 6.54545V41.4545C0.0905762 45.0695 3.17632 48 6.98279 48H43.7412C47.5477 48 50.6335 45.0695 50.6335 41.4545V6.54545C50.6335 2.9305 47.5477 0 43.7412 0Z" fill="white"/>
        <path d="M39.1292 12.4091L38.6065 12.5891L10.2393 22.2955C10.0383 22.3545 9.86357 22.4752 9.74255 22.6387C9.62152 22.8021 9.56103 22.9991 9.57055 23.1988C9.58008 23.3984 9.65908 23.5894 9.79518 23.7418C9.93127 23.8942 10.1168 23.9994 10.3226 24.0409L17.6657 25.95L19.0355 29.7682L20.4053 33.5864C20.484 33.7735 20.6096 33.9396 20.7712 34.0702C20.9329 34.2009 21.1256 34.292 21.3328 34.3358C21.5399 34.3796 21.7552 34.3747 21.9599 34.3216C22.1646 34.2685 22.3526 34.1687 22.5074 34.0309L26.301 30.6273L33.7504 35.4245C34.6607 36.0136 35.9587 35.5773 36.1913 34.6064L41.125 13.9036C41.3662 12.8782 40.229 12.0355 39.1292 12.4091ZM35.5079 17.0045L22.6912 26.9536L22.0882 27.4227C21.9557 27.5225 21.8692 27.6672 21.8469 27.8264L21.712 28.8845L21.3415 31.8573C21.3446 31.8934 21.3324 31.9293 21.3076 31.9569C21.2828 31.9845 21.2475 32.0017 21.2094 32.0045C21.1713 32.0074 21.1336 31.9958 21.1045 31.9723C21.0754 31.9488 21.0574 31.9153 21.0543 31.8791L20.0119 28.9091L18.935 25.8682C18.8894 25.7315 18.8955 25.584 18.9521 25.4511C19.0087 25.3182 19.1123 25.2082 19.2451 25.14L32.5816 17.88L35.0915 16.5164C35.4562 16.3145 35.8295 16.7536 35.5079 17.0045Z" fill="#D02431"/>
    </g>
    <defs>
        <clipPath id="clip0_1_367">
            <rect width="50.5429" height="48" fill="white" transform="translate(0.0905762)"/>
        </clipPath>
    </defs>
</svg>
