<svg xmlns="http://www.w3.org/2000/svg" width="49" height="48" viewBox="0 0 49 48" fill="none">
    <g clip-path="url(#clip0_1_335)">
        <rect x="12.8976" y="5" width="27" height="41" fill="#D02431"/>
        <path d="M45.0446 0H3.91007C1.99533 0 0.443359 1.54978 0.443359 3.46181V44.5382C0.443359 46.4502 1.99533 48 3.91007 48H45.0446C46.9593 48 48.5113 46.4502 48.5113 44.5382V3.46181C48.5113 1.54978 46.9593 0 45.0446 0ZM36.5175 18.3712V21.6161C34.9851 21.6167 33.4963 21.3169 32.0922 20.7252C31.1893 20.3446 30.3481 19.8541 29.5787 19.2615L29.6018 29.2498C29.5922 31.499 28.7011 33.6122 27.0884 35.2039C25.7759 36.4995 24.1128 37.3235 22.3102 37.5901C21.8866 37.6527 21.4556 37.6849 21.0197 37.6849C19.0902 37.6849 17.2581 37.0606 15.7596 35.909C15.4775 35.6921 15.2079 35.4571 14.9511 35.2039C13.2032 33.4789 12.302 31.1408 12.4537 28.6812C12.5695 26.8089 13.3201 25.0234 14.5715 23.6239C16.2271 21.7719 18.5433 20.744 21.0197 20.744C21.4556 20.744 21.8866 20.7766 22.3102 20.8393V22.0391V25.3767C21.9087 25.2444 21.4797 25.1717 21.0331 25.1717C18.7706 25.1717 16.9401 27.015 16.9739 29.276C16.9953 30.7226 17.7868 31.9872 18.9539 32.6842C19.5024 33.0119 20.1335 33.2148 20.8069 33.2517C21.3345 33.2806 21.8411 33.2073 22.3102 33.0526C23.9267 32.5193 25.0928 31.0031 25.0928 29.2149L25.0982 22.5262V10.3151H29.5734C29.5777 10.7579 29.6227 11.19 29.7063 11.6086C30.0441 13.3031 31.0006 14.7733 32.3318 15.7756C33.4926 16.6499 34.938 17.1682 36.5047 17.1682C36.5058 17.1682 36.5186 17.1682 36.5176 17.1671L36.5175 18.3712Z" fill="white"/>
    </g>
    <defs>
        <clipPath id="clip0_1_335">
            <rect width="48.0679" height="48" fill="white" transform="translate(0.443359)"/>
        </clipPath>
    </defs>
</svg>
