<svg xmlns="http://www.w3.org/2000/svg" width="52" height="48" viewBox="0 0 52 48" fill="none">
    <g clip-path="url(#clip0_1_351)">
        <path d="M47.2527 0H4.6903C2.48656 0 0.700073 1.69661 0.700073 3.78947V44.2105C0.700073 46.3034 2.48656 48 4.6903 48H47.2527C49.4565 48 51.243 46.3034 51.243 44.2105V3.78947C51.243 1.69661 49.4565 0 47.2527 0Z" fill="white"/>
        <path d="M28.6317 11.3684H23.3114C20.8421 11.3684 18.4739 12.3 16.7278 13.9582C14.9818 15.6164 14.0009 17.8654 14.0009 20.2105V24C14.0001 25.6739 14.4997 27.3136 15.4415 28.7284C16.3833 30.1433 17.7287 31.2752 19.3212 31.9926V36.2147C19.3227 36.2971 19.3496 36.3772 19.3985 36.4453C19.4473 36.5134 19.516 36.5664 19.5962 36.5979C19.6763 36.6295 19.7644 36.6381 19.8496 36.6227C19.9349 36.6074 20.0135 36.5688 20.076 36.5116L23.9398 32.8421H28.6317C31.101 32.8421 33.4692 31.9105 35.2152 30.2523C36.9613 28.5941 37.9422 26.3451 37.9422 24V20.2105C37.9422 17.8654 36.9613 15.6164 35.2152 13.9582C33.4692 12.3 31.101 11.3684 28.6317 11.3684ZM32.1165 27.941L30.7864 29.2042C29.3699 30.521 25.6723 29.0179 22.4136 25.8568C19.1549 22.6958 17.7251 19.1495 19.0884 17.8326L20.4185 16.5695C20.6791 16.3472 21.0181 16.2259 21.3684 16.2294C21.7186 16.2329 22.0548 16.361 22.3105 16.5884L24.2524 18.4831C24.4066 18.6343 24.5179 18.8202 24.5756 19.0234C24.6334 19.2266 24.6357 19.4404 24.5825 19.6447C24.5293 19.849 24.4223 20.0372 24.2715 20.1914C24.1207 20.3456 23.931 20.4608 23.7204 20.5263C23.4082 20.6173 23.1449 20.8189 22.9851 21.0895C22.8253 21.36 22.7814 21.6785 22.8625 21.9789C23.195 23.381 25.0704 25.1368 26.467 25.481C26.7818 25.5523 27.1132 25.5121 27.3991 25.3679C27.685 25.2237 27.9057 24.9855 28.0199 24.6979C28.0936 24.4973 28.2205 24.3181 28.3883 24.1775C28.5561 24.037 28.7592 23.9399 28.978 23.8954C29.1968 23.851 29.4239 23.8608 29.6376 23.924C29.8512 23.9871 30.0442 24.1013 30.1978 24.2558L32.1364 26.1505C32.3693 26.3974 32.4963 26.7181 32.4926 27.0495C32.489 27.3808 32.3548 27.6989 32.1165 27.941ZM27.1819 17.3684C27.0496 17.3678 26.9175 17.3752 26.7862 17.3905C26.7283 17.3965 26.6698 17.3917 26.6139 17.3762C26.5581 17.3607 26.5059 17.3349 26.4605 17.3003C26.4152 17.2657 26.3774 17.223 26.3494 17.1745C26.3214 17.1261 26.3037 17.0728 26.2974 17.0179C26.2911 16.9629 26.2962 16.9073 26.3125 16.8543C26.3288 16.8012 26.3559 16.7517 26.3924 16.7086C26.4288 16.6655 26.4738 16.6296 26.5248 16.603C26.5759 16.5765 26.6319 16.5597 26.6898 16.5537C26.8531 16.5358 27.0175 16.5274 27.1819 16.5284C28.3587 16.5276 29.4876 16.9705 30.3206 17.7598C31.1537 18.5492 31.6226 19.6203 31.6244 20.7379C31.6254 20.894 31.6166 21.0501 31.5978 21.2053C31.5914 21.2602 31.5738 21.3134 31.5458 21.3619C31.5178 21.4104 31.48 21.4531 31.4346 21.4877C31.3892 21.5223 31.3371 21.5481 31.2812 21.5636C31.2253 21.579 31.1668 21.5839 31.1089 21.5779C31.0511 21.5719 30.995 21.5551 30.944 21.5285C30.893 21.5019 30.848 21.4661 30.8115 21.423C30.7751 21.3798 30.748 21.3303 30.7317 21.2773C30.7154 21.2242 30.7102 21.1686 30.7166 21.1137C30.7311 20.9889 30.7388 20.8634 30.7399 20.7379C30.7381 19.8431 30.3624 18.9856 29.6952 18.3538C29.0281 17.722 28.1241 17.3676 27.1819 17.3684ZM29.8421 20.7379C29.8324 20.8434 29.7815 20.9416 29.6993 21.0132C29.6171 21.0848 29.5097 21.1245 29.3981 21.1245C29.2866 21.1245 29.1792 21.0848 29.097 21.0132C29.0148 20.9416 28.9639 20.8434 28.9542 20.7379C28.9542 20.2915 28.7675 19.8634 28.4351 19.5477C28.1028 19.2321 27.652 19.0547 27.1819 19.0547C27.1204 19.0598 27.0584 19.0526 27 19.0338C26.9415 19.0149 26.8878 18.9846 26.8423 18.945C26.7968 18.9054 26.7604 18.8572 26.7356 18.8035C26.7107 18.7498 26.6979 18.6918 26.6979 18.6331C26.6979 18.5745 26.7107 18.5165 26.7356 18.4628C26.7604 18.4091 26.7968 18.3609 26.8423 18.3213C26.8878 18.2816 26.9415 18.2514 27 18.2325C27.0584 18.2136 27.1204 18.2065 27.1819 18.2116C27.8874 18.2116 28.564 18.4777 29.0629 18.9515C29.5618 19.4253 29.8421 20.0679 29.8421 20.7379ZM33.2238 22.1052C33.2139 22.1627 33.1917 22.2175 33.1586 22.2664C33.1254 22.3153 33.082 22.3572 33.031 22.3895C32.9801 22.4217 32.9226 22.4436 32.8624 22.4539C32.8021 22.4641 32.7402 22.4624 32.6806 22.4489C32.621 22.4354 32.565 22.4104 32.5161 22.3754C32.4672 22.3405 32.4263 22.2963 32.3962 22.2457C32.366 22.1951 32.3472 22.1391 32.3408 22.0812C32.3345 22.0234 32.3407 21.9649 32.3592 21.9095C32.4552 21.5278 32.5032 21.1366 32.5022 20.7442C32.5022 19.4042 31.9417 18.119 30.9439 17.1714C29.9462 16.2239 28.5929 15.6916 27.1819 15.6916C27.0456 15.6916 26.9059 15.6916 26.7696 15.6916C26.7115 15.6957 26.6531 15.689 26.5978 15.6717C26.5425 15.6544 26.4913 15.6269 26.4471 15.5909C26.3579 15.518 26.3029 15.4145 26.2941 15.3031C26.2853 15.1918 26.3234 15.0816 26.4001 14.9969C26.4768 14.9122 26.5858 14.8599 26.7031 14.8516C26.8627 14.8389 27.0223 14.8326 27.1819 14.8326C28.8293 14.8351 30.4084 15.4584 31.5723 16.5656C32.7363 17.6728 33.39 19.1733 33.39 20.7379C33.3902 21.1982 33.3344 21.6571 33.2238 22.1052Z" fill="#D02431"/>
    </g>
    <defs>
        <clipPath id="clip0_1_351">
            <rect width="50.5429" height="48" fill="white" transform="translate(0.700073)"/>
        </clipPath>
    </defs>
</svg>
