<svg xmlns="http://www.w3.org/2000/svg" width="51" height="48" viewBox="0 0 51 48" fill="none">
    <path d="M46.11 0H4.94629C2.35631 0 0.256714 1.99396 0.256714 4.45364V43.5464C0.256714 46.006 2.35631 48 4.94629 48H46.11C48.7 48 50.7996 46.006 50.7996 43.5464V4.45364C50.7996 1.99396 48.7 0 46.11 0Z" fill="white"/>
    <path d="M36.6704 13.4183C34.0411 10.8964 30.5494 9.34976 26.8252 9.05743C23.1009 8.7651 19.3892 9.7463 16.3597 11.824C13.3301 13.9018 11.182 16.9393 10.3029 20.3886C9.42387 23.838 9.87166 27.4721 11.5655 30.6356L9.90278 38.3019C9.88553 38.3782 9.88504 38.4571 9.90135 38.5336C9.91765 38.6101 9.9504 38.6825 9.99755 38.7465C10.0666 38.8435 10.1652 38.9182 10.2801 38.9606C10.3951 39.003 10.5209 39.011 10.6408 38.9837L18.5525 37.2028C21.8742 38.7708 25.6738 39.1687 29.2754 38.3258C32.877 37.4828 36.0469 35.4538 38.221 32.5996C40.3952 29.7455 41.4326 26.2514 41.1486 22.739C40.8647 19.2266 39.2778 15.9238 36.6704 13.4183ZM34.2036 32.1165C32.3844 33.8393 30.0418 34.9765 27.506 35.368C24.9701 35.7594 22.3689 35.3852 20.0688 34.2983L18.966 33.7801L14.1156 34.871L14.13 34.8137L15.1351 30.1774L14.5952 29.1656C13.42 26.9736 13.0054 24.4846 13.4109 22.0551C13.8163 19.6257 15.0211 17.3804 16.8524 15.641C19.1536 13.4563 22.2742 12.229 25.528 12.229C28.7818 12.229 31.9024 13.4563 34.2036 15.641C34.2232 15.6624 34.2443 15.6824 34.2667 15.701C36.5394 17.8913 37.8081 20.8461 37.7962 23.9211C37.7844 26.9961 36.493 29.942 34.2036 32.1165Z" fill="#D02431"/>
    <path d="M33.7727 28.7154C33.1783 29.6045 32.2392 30.6927 31.0589 30.9627C28.9913 31.4372 25.818 30.979 21.8693 27.4827L21.8205 27.4418C18.3485 24.3845 17.4468 21.84 17.6651 19.8218C17.7857 18.6763 18.7908 17.64 19.638 16.9636C19.7719 16.855 19.9307 16.7777 20.1017 16.7379C20.2728 16.6981 20.4512 16.6968 20.6228 16.7341C20.7945 16.7715 20.9545 16.8465 21.0902 16.9531C21.2258 17.0597 21.3333 17.195 21.4041 17.3481L22.682 20.0754C22.7651 20.2522 22.7958 20.4472 22.7711 20.6394C22.7463 20.8316 22.6668 21.0137 22.5413 21.1663L21.8952 21.9627C21.7565 22.1271 21.6729 22.3272 21.6549 22.5372C21.637 22.7471 21.6857 22.9574 21.7947 23.1409C22.1565 23.7436 23.0238 24.63 23.9858 25.4509C25.0656 26.3781 26.2631 27.2263 27.0212 27.5154C27.2241 27.5941 27.4471 27.6133 27.6616 27.5705C27.8761 27.5278 28.0721 27.425 28.2245 27.2754L28.974 26.5581C29.1187 26.4227 29.2985 26.3261 29.4953 26.2782C29.692 26.2303 29.8986 26.2328 30.094 26.2854L33.1295 27.1036C33.2969 27.1524 33.4504 27.2369 33.5782 27.3506C33.706 27.4644 33.8047 27.6044 33.8667 27.7599C33.9288 27.9154 33.9526 28.0824 33.9363 28.248C33.92 28.4136 33.8641 28.5735 33.7727 28.7154Z" fill="#D02431"/>
</svg>
