<svg xmlns="http://www.w3.org/2000/svg" width="49" height="48" viewBox="0 0 49 48" fill="none">
    <g clip-path="url(#clip0_1_338)">
        <path d="M44.81 48H4.3317C2.23587 48 0.536865 46.3034 0.536865 44.2105V3.78947C0.536865 1.69661 2.23587 0 4.3317 0H44.81C46.9058 0 48.6048 1.69661 48.6048 3.78947V44.2105C48.6048 46.3034 46.9058 48 44.81 48Z" fill="white"/>
        <path d="M32.4357 33.0283H16.706C16.0775 33.0283 15.455 32.9046 14.8743 32.6643C14.2936 32.424 13.766 32.0718 13.3217 31.6278C12.8773 31.1838 12.525 30.6567 12.2847 30.0767C12.0444 29.4966 11.921 28.875 11.9214 28.2473V19.7525C11.921 19.1248 12.0444 18.5032 12.2847 17.9231C12.525 17.3431 12.8773 16.816 13.3217 16.372C13.766 15.928 14.2936 15.5758 14.8743 15.3355C15.455 15.0952 16.0775 14.9715 16.706 14.9715H32.4357C33.0642 14.9715 33.6867 15.0952 34.2674 15.3355C34.8481 15.5758 35.3757 15.928 35.82 16.372C36.2644 16.816 36.6167 17.3431 36.857 17.9231C37.0973 18.5032 37.2207 19.1248 37.2203 19.7525V28.2473C37.2207 28.875 37.0973 29.4966 36.857 30.0767C36.6167 30.6567 36.2644 31.1838 35.82 31.6278C35.3757 32.0718 34.8481 32.424 34.2674 32.6643C33.6867 32.9046 33.0642 33.0283 32.4357 33.0283ZM21.2377 20.1283V27.8715L27.904 23.9999L21.2377 20.1283Z" fill="#D02431"/>
    </g>
    <defs>
        <clipPath id="clip0_1_338">
            <rect width="48.0679" height="48" fill="white" transform="matrix(1 0 0 -1 0.536865 48)"/>
        </clipPath>
    </defs>
</svg>
