<svg width="40" height="24" viewBox="0 0 40 24" fill="none" xmlns="http://www.w3.org/2000/svg">
<g id="9am logo 1" clip-path="url(#clip0_718_680)">
<g id="&#208;&#161;&#208;&#187;&#208;&#190;&#208;&#185; 2">
<g id="Layer 1">
<path id="Vector" fill-rule="evenodd" clip-rule="evenodd" d="M14.8208 18.9426L14.5465 19.272C14.4593 19.394 14.3409 19.5526 14.2037 19.754C14.0833 19.9031 14.0097 20.0832 13.9918 20.2725C13.9918 20.4128 14.0542 20.486 14.1788 20.486C14.4013 20.4579 14.6144 20.3807 14.8021 20.2603C15.4801 19.8647 16.1077 19.3916 16.6718 18.8511C16.7528 18.7717 16.8027 18.7595 16.8276 18.8145V18.8633C16.8276 18.8633 16.8276 18.9121 16.7778 18.9426C15.4004 20.2176 14.4032 20.8521 13.7737 20.8521C13.6881 20.8542 13.603 20.8391 13.5236 20.8076C13.4443 20.7761 13.3724 20.7289 13.3125 20.6691C13.2536 20.6126 13.2068 20.5452 13.1747 20.4708C13.1426 20.3965 13.1259 20.3166 13.1255 20.2359C13.1527 19.9752 13.2265 19.7212 13.3437 19.4855C13.0228 19.8905 12.6302 20.2356 12.1844 20.5043C11.8972 20.6996 11.5656 20.8232 11.2184 20.8643C10.9915 20.8737 10.7692 20.7997 10.5951 20.6569C10.5183 20.5944 10.4567 20.5161 10.4146 20.4274C10.3726 20.3388 10.3512 20.2421 10.3521 20.1444C10.3815 19.4965 10.665 18.8847 11.1436 18.4362C11.5503 18.0175 12.0649 17.7139 12.6332 17.5577C12.8821 17.4748 13.143 17.4315 13.406 17.4296C13.6651 17.431 13.9191 17.5005 14.1414 17.6309C14.3457 17.7359 14.5049 17.909 14.5902 18.119C14.6927 18.1121 14.7951 18.133 14.8863 18.1792C14.9775 18.2255 15.054 18.2954 15.1074 18.3813C15.1194 18.419 15.1194 18.4595 15.1074 18.4972C15.0991 18.5688 15.0662 18.6355 15.014 18.6863C14.9579 18.7595 14.8831 18.845 14.7958 18.9426H14.8208ZM13.942 17.7834C13.7253 17.7887 13.5125 17.8408 13.3187 17.936C12.865 18.1404 12.466 18.4453 12.1533 18.8267C11.7185 19.226 11.413 19.7415 11.2745 20.3091C11.2745 20.4738 11.343 20.5531 11.4802 20.5531C11.6784 20.5249 11.8678 20.454 12.0348 20.3457C12.4211 20.1173 12.7752 19.8405 13.0881 19.5221L13.3686 19.2598L13.7737 18.8755C14.1539 18.4911 14.3409 18.2166 14.3409 18.0458C14.3409 17.8749 14.21 17.7956 13.942 17.7956V17.7834ZM15.0825 23.9756C15.581 23.9735 16.0727 23.8631 16.5222 23.6523C16.9896 23.44 17.4123 23.1441 17.7687 22.7799C18.4973 22.0245 19.1255 21.182 19.6385 20.2725C19.9181 19.646 20.3301 19.0846 20.8476 18.6253C20.9161 18.5948 20.9473 18.5582 20.9473 18.5094C20.9473 18.4606 20.8725 18.3874 20.7167 18.2776C20.5971 18.1845 20.4515 18.1292 20.2991 18.119C20.2091 17.91 20.0485 17.7377 19.8441 17.6309C19.6238 17.5013 19.372 17.4318 19.1149 17.4296C18.8499 17.4315 18.5869 17.4748 18.3359 17.5577C17.7682 17.7153 17.2539 18.0186 16.8463 18.4362C16.3824 18.8873 16.1087 19.4927 16.0797 20.1322C16.0787 20.2305 16.1007 20.3278 16.1439 20.4166C16.1871 20.5054 16.2504 20.5834 16.329 20.6446C16.4941 20.7819 16.7045 20.8556 16.9211 20.8521C17.1917 20.8405 17.4542 20.7583 17.6815 20.6141C18.0318 20.3938 18.3577 20.1383 18.6537 19.8516C19.0277 19.4977 19.3393 19.1805 19.5886 18.906C19.3306 19.2584 19.0934 19.6251 18.8781 20.0041C18.5976 20.4799 18.3421 20.9131 18.099 21.3035C17.8453 21.7088 17.5686 22.0999 17.2701 22.4748C17.0089 22.8488 16.6658 23.1611 16.2658 23.389C15.8659 23.6169 15.4191 23.7548 14.9579 23.7926H14.6338C14.4203 23.7829 14.2099 23.7397 14.0105 23.6645C13.781 23.5999 13.5684 23.4875 13.3873 23.335C13.0811 23.0641 12.8751 22.7016 12.8014 22.304C12.8014 22.2369 12.7516 22.2064 12.6955 22.2064C12.6394 22.2064 12.6581 22.2064 12.6581 22.2552C12.649 22.5076 12.7082 22.7579 12.8297 22.9808C12.9511 23.2036 13.1306 23.391 13.3499 23.5242C13.8693 23.8381 14.4726 23.9932 15.0825 23.9695V23.9756ZM16.9523 20.3152C16.9769 20.0964 17.0561 19.8869 17.1829 19.7051C17.385 19.378 17.6278 19.0768 17.9058 18.8084C18.1922 18.5164 18.5196 18.2658 18.8781 18.0641C19.0884 17.9346 19.3241 17.8494 19.5699 17.8139C19.6723 17.8038 19.7748 17.8321 19.8566 17.8933C19.898 17.9408 19.9201 18.0016 19.9189 18.0641C19.8645 18.338 19.7226 18.5879 19.5138 18.7778C19.017 19.3642 18.4427 19.8832 17.8061 20.3213C17.6479 20.4588 17.4495 20.5442 17.239 20.5653C17.0457 20.5653 16.9523 20.4799 16.9523 20.2969V20.3152ZM23.9389 18.9121C24.3627 18.6863 24.5621 18.4545 24.5621 18.2227C24.5621 17.9909 24.4188 17.8688 24.1321 17.8688C23.9809 17.8734 23.8323 17.9087 23.6958 17.9726C23.3155 18.1575 22.983 18.4245 22.7235 18.7534C22.3853 19.0969 22.1822 19.5464 22.1501 20.0224C22.1481 20.1698 22.1915 20.3144 22.2748 20.4372C22.3252 20.5058 22.3933 20.5601 22.4721 20.5944C22.551 20.6287 22.6378 20.6418 22.7235 20.6324C23.2462 20.5772 23.7416 20.376 24.1508 20.0529C24.6834 19.7121 25.1878 19.3307 25.659 18.9121C25.7525 18.8145 25.8024 18.8145 25.8024 18.9121C25.8019 18.9395 25.7949 18.9665 25.7819 18.9909C25.7689 19.0152 25.7503 19.0363 25.7276 19.0524L25.1043 19.5892C25.0046 19.6746 24.8052 19.8394 24.4811 20.0712C24.2568 20.2535 24.017 20.4168 23.7644 20.5592C23.3207 20.8108 22.8238 20.959 22.3122 20.9924C21.9792 21.0107 21.6498 20.9183 21.3773 20.7301C21.2638 20.643 21.1734 20.5305 21.1137 20.402C21.054 20.2735 21.0269 20.1328 21.0345 19.9919C21.0391 19.655 21.1244 19.3238 21.2835 19.025C21.4426 18.7262 21.6711 18.4681 21.9507 18.2715C22.4792 17.8171 23.1546 17.56 23.8578 17.5455C24.0202 17.5261 24.185 17.5411 24.3409 17.5896C24.4968 17.638 24.6403 17.7187 24.7615 17.8261C24.8225 17.9167 24.855 18.0227 24.855 18.1312C24.8493 18.2519 24.8129 18.3693 24.7491 18.4728C24.5492 18.7611 24.2675 18.9858 23.9389 19.1195C23.5881 19.2912 23.2029 19.385 22.8108 19.394C22.6737 19.394 22.6051 19.394 22.5926 19.3574C22.5802 19.3208 22.5926 19.3147 22.5926 19.3025C22.6381 19.2953 22.6844 19.2953 22.7298 19.3025C23.16 19.2743 23.5759 19.14 23.9389 18.9121ZM28.4574 18.1129C27.9435 18.6162 27.5218 19.2022 27.2109 19.8455C27.1497 20.0097 27.1181 20.1831 27.1174 20.3579C27.1156 20.4367 27.1355 20.5145 27.1749 20.5832C27.2144 20.6519 27.272 20.709 27.3418 20.7484C27.5085 20.8208 27.6917 20.8493 27.8732 20.8311C28.0546 20.8129 28.2281 20.7487 28.3764 20.6446C29.011 20.2824 29.5936 19.8393 30.109 19.3269C30.1424 19.2969 30.1625 19.2553 30.1651 19.211C30.1651 19.1073 30.1215 19.1012 30.0342 19.211C29.6408 19.5832 29.2245 19.9316 28.7877 20.2542C28.6489 20.3678 28.4761 20.4342 28.2954 20.4433C28.271 20.4417 28.2475 20.4334 28.2277 20.4194C28.2079 20.4054 28.1924 20.3862 28.1832 20.364C28.1739 20.2881 28.1892 20.2114 28.2268 20.1444C28.3562 19.8903 28.5041 19.6457 28.6693 19.4123C28.873 19.1585 29.0525 18.8869 29.2053 18.6009C29.2687 18.4793 29.3069 18.3466 29.3175 18.2105C29.3253 18.1375 29.3253 18.0639 29.3175 17.9909C29.289 17.8456 29.2076 17.7153 29.0884 17.6244C28.9691 17.5335 28.8202 17.4881 28.6693 17.4967C28.4239 17.5173 28.1857 17.5889 27.9708 17.7067C27.7558 17.8246 27.569 17.9859 27.4228 18.18C27.2608 18.3508 27.0239 18.6375 26.7123 19.0402C26.8491 18.7083 26.9231 18.3548 26.9304 17.997C26.9449 17.8636 26.9167 17.7292 26.8497 17.6122C26.7827 17.4953 26.6803 17.4016 26.5565 17.3442C26.5214 17.3392 26.4857 17.3392 26.4505 17.3442C26.437 17.3421 26.4231 17.3432 26.41 17.3474C26.3969 17.3515 26.385 17.3587 26.3753 17.3682C26.3656 17.3777 26.3583 17.3893 26.3541 17.4021C26.3498 17.4149 26.3487 17.4285 26.3508 17.4418C26.3468 17.4605 26.3488 17.48 26.3566 17.4975C26.3645 17.515 26.3777 17.5296 26.3945 17.5394C26.4165 17.5632 26.4334 17.5912 26.4441 17.6216C26.4548 17.652 26.4591 17.6843 26.4568 17.7163C26.4601 17.8109 26.4409 17.9048 26.4007 17.9909C26.258 18.2251 26.0931 18.4457 25.9083 18.6497C25.8585 18.7026 25.7837 18.7758 25.684 18.8694L25.4845 19.0524L25.2601 19.2476L25.0171 19.455C24.9962 19.4729 24.9806 19.4959 24.9718 19.5216C24.9631 19.5473 24.9615 19.5749 24.9672 19.6014C24.9672 19.6563 25.0233 19.6563 25.1043 19.6014C25.3412 19.4123 25.6341 19.15 25.9831 18.8084C25.658 19.2883 25.3063 19.7506 24.9298 20.1932C24.7491 20.425 24.6307 20.5775 24.5808 20.6507C24.7508 20.8043 24.9727 20.8912 25.2041 20.8948H25.2539C25.3541 20.8785 25.45 20.8425 25.5357 20.789C25.6213 20.7356 25.6951 20.6657 25.7525 20.5836C25.9395 20.3762 26.2449 19.9695 26.6687 19.3635C26.9747 18.9032 27.3345 18.4794 27.7407 18.1007C27.9284 17.8986 28.1737 17.7562 28.4449 17.6919C28.5945 17.6919 28.6693 17.7285 28.6693 17.7956C28.6484 17.909 28.5891 18.0121 28.501 18.0885L28.4574 18.1129ZM33.4434 17.9604C33.4434 17.8139 33.3686 17.7407 33.2065 17.7407C32.989 17.7635 32.7777 17.8256 32.5833 17.9238C32.2096 18.1132 31.8821 18.3796 31.6235 18.7046C31.2679 19.0612 31.0479 19.5263 31.0003 20.0224C30.9865 20.1455 31.0113 20.2698 31.0714 20.3788C31.1315 20.4877 31.2241 20.5762 31.3368 20.6324C31.4175 20.6661 31.5046 20.6828 31.5923 20.6813C32.0101 20.6486 32.4108 20.5052 32.7516 20.2664C33.3627 19.863 33.9381 19.4099 34.4717 18.9121C34.5839 18.8022 34.64 18.8022 34.64 18.9121C34.6393 18.9371 34.6327 18.9617 34.6209 18.9839C34.609 19.0061 34.5921 19.0253 34.5715 19.0402C33.9253 19.6652 33.1982 20.2047 32.4088 20.6446C32.0704 20.8193 31.6994 20.9251 31.3181 20.9558C30.3895 20.9558 29.9283 20.6202 29.9283 19.9553C29.9328 19.6183 30.0181 19.2872 30.1772 18.9884C30.3363 18.6896 30.5649 18.4315 30.8444 18.2349C31.3787 17.7819 32.0574 17.5252 32.764 17.5089C32.9168 17.4915 33.0715 17.5077 33.2171 17.5563C33.3626 17.6048 33.4953 17.6845 33.6054 17.7895C33.6869 17.8713 33.7337 17.9803 33.7363 18.0946C33.7325 18.2094 33.7027 18.3219 33.6491 18.424C33.6268 18.4753 33.5894 18.519 33.5416 18.5494C33.4939 18.5798 33.438 18.5956 33.3811 18.5948C33.2564 18.5948 33.2377 18.5155 33.325 18.363C33.4016 18.2435 33.4466 18.1072 33.4558 17.9665L33.4434 17.9604ZM36.1732 18.1129C35.6766 18.6076 35.2567 19.1707 34.9267 19.7845C34.8765 19.9363 34.8492 20.0946 34.8457 20.2542C34.8457 20.6324 35.0514 20.8216 35.4689 20.8216C36.0049 20.8216 36.7778 20.2115 37.7749 18.9914C38.0305 18.668 38.2548 18.3813 38.4356 18.0946C37.8811 19.2254 37.2415 20.3143 36.5222 21.3523C36.0304 22.0288 35.4356 22.6275 34.7584 23.1276C34.2278 23.5477 33.5709 23.7856 32.8887 23.8048C32.4483 23.8102 32.0201 23.6633 31.6796 23.3899C31.3437 23.1221 31.1215 22.7416 31.0563 22.3223C31.0575 22.308 31.0546 22.2935 31.048 22.2806C31.0415 22.2677 31.0314 22.2568 31.0189 22.2491C31.0189 22.2491 30.9753 22.2491 30.9629 22.2491C30.957 22.2626 30.954 22.2772 30.954 22.2918C30.954 22.3065 30.957 22.321 30.9629 22.3345C30.993 22.586 31.0762 22.8287 31.2071 23.0471C31.3379 23.2655 31.5137 23.455 31.7232 23.6035C32.1798 23.8894 32.7147 24.032 33.2564 24.0122C33.879 24.0101 34.4914 23.8571 35.0389 23.5669C35.6005 23.2829 36.1102 22.9097 36.5471 22.4626C36.9636 22.0352 37.3256 21.5599 37.6254 21.0473C37.8757 20.6307 38.0844 20.1915 38.2486 19.7356L38.66 18.5155C38.8095 18.0702 38.9342 17.7468 39.0277 17.5394C39.1897 17.21 39.3829 17.0453 39.6135 17.0453H39.7195C39.782 17.0492 39.8444 17.0365 39.9002 17.0087C39.9688 17.0087 39.9999 16.9476 39.9999 16.8988C39.9917 16.8278 39.9683 16.7592 39.9314 16.6975C39.9097 16.6566 39.8764 16.6227 39.8355 16.6C39.7946 16.5772 39.7478 16.5666 39.7008 16.5694C39.61 16.5674 39.5195 16.5797 39.4328 16.606C39.2458 16.6609 39.0214 16.9782 38.7659 17.5577C38.473 17.9726 38.1427 18.4179 37.7189 18.8999C36.8588 19.9187 36.2792 20.425 35.9613 20.425C35.899 20.425 35.8678 20.3884 35.8678 20.3091C35.8962 20.1695 35.9606 20.0393 36.0548 19.9309C36.1794 19.7601 36.3041 19.5892 36.4412 19.4184L36.7653 18.9731C36.8516 18.8442 36.9247 18.7073 36.9834 18.5643C37.0461 18.4323 37.0801 18.2889 37.0831 18.1434C37.0833 18.0601 37.066 17.9776 37.0324 17.9011C36.9988 17.8246 36.9495 17.7557 36.8876 17.6985C36.8257 17.6414 36.7525 17.5972 36.6725 17.5688C36.5925 17.5404 36.5074 17.5283 36.4225 17.5333C36.1743 17.5295 35.9323 17.6092 35.7369 17.759C35.4426 17.9829 35.1636 18.2254 34.9018 18.485C34.5403 18.845 34.2785 19.0951 34.2037 19.15C34.129 19.2049 34.0479 19.3025 34.0542 19.3574C34.0604 19.4123 34.0978 19.4062 34.1726 19.3574C34.2474 19.3086 34.4842 19.089 34.8768 18.7473C35.1573 18.4794 35.4528 18.2268 35.7619 17.9909C35.8847 17.8833 36.0358 17.8115 36.1981 17.7834C36.2916 17.7834 36.3415 17.8139 36.3415 17.8872C36.3199 17.9788 36.2672 18.0605 36.1919 18.119L36.1732 18.1129Z" fill="white"/>
<path id="Vector_2" fill-rule="evenodd" clip-rule="evenodd" d="M6.71243 5.92378C8.16031 5.11187 9.70243 4.47284 11.3058 4.02038H11.1437C10.6418 4.04806 10.1475 4.15307 9.67908 4.33151C8.91249 4.55114 8.18329 4.80126 7.4167 5.02089C7.06145 5.1795 6.74359 5.36252 6.39457 5.55164C5.82119 5.86278 5.05459 6.30202 4.89255 7.0158C4.87695 7.121 4.87695 7.22784 4.89255 7.33304C5.18547 6.64366 6.13904 6.27152 6.71243 5.92378ZM6.13904 6.67417C6.85249 6.26374 7.58679 5.88909 8.3391 5.55164C9.37257 5.108 10.4394 4.74292 11.5301 4.45963C11.1811 4.89887 10.857 5.33202 10.508 5.77127C9.82072 6.4037 9.03627 6.92658 8.18329 7.32084C7.2357 7.75426 6.1919 7.94727 5.14808 7.8821C5.11887 7.72237 5.1429 7.55768 5.21664 7.41234C5.45555 7.09855 5.7733 6.85056 6.13904 6.69247V6.67417ZM17.077 2.77584C17.2425 3.19136 17.3189 3.63575 17.3014 4.08138C17.1265 5.02551 16.7226 5.91471 16.1235 6.67417C14.8146 8.54707 13.4747 10.42 12.2282 12.3539C10.8259 14.5745 9.97201 17.0819 8.30794 19.1317C7.4167 20.2542 6.61894 22.0356 4.92994 22.0356C4.4992 22.0248 4.0828 21.8818 3.73954 21.6269C3.38325 21.5347 3.05905 21.35 2.80122 21.0923C2.5434 20.8345 2.36155 20.5133 2.27491 20.1627C1.8885 18.2898 2.78597 16.5023 3.5214 15.0443L3.62112 14.7941C4.09479 13.9157 4.51237 13.0738 4.9611 12.2624C4.81192 12.2775 4.66154 12.2775 4.51237 12.2624C2.01938 12.2624 -0.816397 10.5176 0.268053 7.73568C0.33661 7.58316 0.398935 7.42455 0.492422 7.23543C0.717902 6.27692 1.21723 5.40095 1.93212 4.70975C2.82337 2.89786 4.51237 2.02546 6.23253 1.22017C7.42644 0.622396 8.72461 0.249874 10.0593 0.122055C11.3992 -0.036562 12.9636 -0.128072 14.2413 0.433189C14.5096 0.542501 14.7664 0.677364 15.0078 0.835833C15.3689 0.912601 15.7103 1.06033 16.0114 1.27006C16.3124 1.47979 16.5668 1.74715 16.7592 2.05596C16.8963 2.28154 17.0032 2.5235 17.077 2.77584ZM16.2793 3.99598C16.2169 4.87447 15.5127 5.71636 15.0328 6.43624C14.5529 7.15612 14.0169 7.9309 13.5058 8.70569C12.2184 10.455 11.0563 12.2896 10.0281 14.1963C9.34876 15.4774 8.72552 16.8501 7.89037 18.1007C7.4167 18.8206 6.39457 20.1932 5.39738 19.2537C5.36621 19.2537 5.39738 19.1622 5.46593 19.1927C6.26369 19.754 6.99289 18.7535 7.44163 18.0397V17.9787C7.52897 17.673 7.63724 17.3734 7.76572 17.0819C7.31698 18.0214 6.77475 18.9121 5.65914 19.1439C5.39265 19.2053 5.11236 19.1675 4.87277 19.0378C4.63318 18.9081 4.45141 18.6959 4.36279 18.4423C4.01377 16.7891 4.94241 15.1358 5.60928 13.696C6.28976 12.3056 7.04494 10.9514 7.87167 9.63909C7.93711 9.50986 8.0121 9.38549 8.09604 9.26695C7.94232 9.32178 7.78375 9.36263 7.62237 9.38896C7.5601 9.44987 7.48281 9.494 7.398 9.51707C6.05487 9.94953 4.59329 9.85998 3.31573 9.26695C3.06526 9.15987 2.83901 9.00515 2.65015 8.81176C2.46128 8.61837 2.31356 8.39018 2.21556 8.14043C2.11756 7.89068 2.07124 7.62436 2.07929 7.35694C2.08734 7.08951 2.1496 6.82632 2.26244 6.58266C2.33947 6.41456 2.43122 6.2533 2.53667 6.1007C2.78717 4.9548 3.47056 3.94378 4.45004 3.27C5.08875 2.75012 5.82571 2.35834 6.61894 2.11697C7.73543 1.5912 8.93046 1.24316 10.159 1.08596C10.8128 0.989991 11.4759 0.969515 12.1347 1.02495C12.712 1.03094 13.2837 1.13625 13.8237 1.33609C14.1052 1.43387 14.3653 1.5829 14.5903 1.77533C14.8565 1.79278 15.1146 1.87288 15.3424 2.00883C15.5703 2.14478 15.7612 2.33256 15.8991 2.55622C15.9987 2.72989 16.0642 2.92025 16.0923 3.11748C16.2522 3.39091 16.3178 3.70756 16.2793 4.02038V3.99598Z" fill="white"/>
<path id="Vector_3" fill-rule="evenodd" clip-rule="evenodd" d="M16.1547 11.1704C16.1562 11.5007 16.0292 11.8192 15.7995 12.0611C15.6926 12.1852 15.5588 12.2847 15.408 12.3522C15.2571 12.4197 15.0928 12.4536 14.9269 12.4515C14.8082 12.4398 14.6966 12.3906 14.609 12.3112C14.5449 12.2514 14.4957 12.1779 14.4654 12.0964C14.4351 12.0149 14.4246 11.9276 14.4345 11.8414C14.4592 11.5693 14.5884 11.3164 14.796 11.1338C14.9058 11.0118 15.0411 10.9144 15.1927 10.8481C15.3443 10.7818 15.5087 10.7481 15.6748 10.7494C15.7941 10.7539 15.9075 10.8018 15.9927 10.8836C16.0406 10.9158 16.0802 10.9585 16.1083 11.0083C16.1364 11.058 16.1523 11.1135 16.1547 11.1704ZM13.3688 15.3493C13.2325 15.3458 13.1011 15.2987 12.9948 15.2151C12.9447 15.1813 12.9029 15.1369 12.8727 15.0851C12.8425 15.0334 12.8246 14.9756 12.8203 14.9162C12.8048 14.6119 12.9122 14.3138 13.1195 14.0865C13.2284 13.9579 13.3632 13.8525 13.5154 13.7769C13.6677 13.7014 13.8341 13.6572 14.0045 13.6472C14.1386 13.652 14.2676 13.6991 14.3722 13.7815C14.4349 13.8421 14.4826 13.9159 14.5118 13.9973C14.541 14.0787 14.5508 14.1655 14.5405 14.2512C14.5175 14.526 14.3909 14.7826 14.1852 14.9711C14.0846 15.0876 13.9597 15.1816 13.8189 15.2468C13.6781 15.3121 13.5246 15.347 13.3688 15.3493Z" fill="white"/>
<path id="Vector_4" fill-rule="evenodd" clip-rule="evenodd" d="M24.6246 12.7261C24.4626 12.9152 24.2881 13.1226 24.1136 13.3361C23.939 13.5497 23.7209 13.8608 23.4903 14.2451C23.2457 14.5301 23.0957 14.8812 23.0603 15.2517C23.0603 15.5202 23.1787 15.6544 23.4093 15.6544C23.8179 15.5958 24.2089 15.4523 24.5561 15.2334C25.8311 14.4809 27.0127 13.5863 28.0774 12.5675C28.227 12.4149 28.3267 12.3966 28.3766 12.5004V12.5858C28.3664 12.6481 28.3331 12.7046 28.2831 12.7444C25.6779 15.144 23.7853 16.3438 22.6053 16.3438C22.4438 16.3478 22.2831 16.3195 22.1331 16.2608C21.9831 16.2021 21.8469 16.1141 21.7328 16.0021C21.62 15.8978 21.5303 15.772 21.4692 15.6325C21.4081 15.4929 21.3769 15.3426 21.3775 15.1907C21.4329 14.687 21.5807 14.1972 21.8138 13.7449C21.2038 14.5086 20.4612 15.1612 19.6199 15.6727C19.0774 16.0419 18.4501 16.2745 17.7938 16.3499C17.3818 16.3583 16.9808 16.2195 16.6658 15.9594C16.5186 15.8427 16.4007 15.6946 16.3207 15.5265C16.2408 15.3585 16.2011 15.1748 16.2046 14.9894C16.2604 13.7671 16.7962 12.6131 17.7003 11.7683C18.47 10.9761 19.4429 10.4009 20.5174 10.1028C20.9888 9.94387 21.4835 9.86144 21.9821 9.85876C22.4704 9.86108 22.9489 9.99398 23.3657 10.2431C23.7574 10.4386 24.0615 10.7688 24.2195 11.1704C24.4129 11.1544 24.607 11.1916 24.7799 11.2778C24.9528 11.3641 25.0976 11.4959 25.198 11.6585C25.2338 11.7261 25.2489 11.8023 25.2416 11.8781C25.228 12.013 25.1688 12.1397 25.0734 12.238C24.9549 12.3661 24.8178 12.5309 24.6496 12.7261H24.6246ZM22.9668 10.5237C22.5727 10.5429 22.1868 10.6405 21.8325 10.8105C20.9763 11.201 20.2235 11.7792 19.6324 12.5004C18.523 13.7754 17.9746 14.7088 17.9746 15.3006C17.9746 15.6117 18.0992 15.7703 18.3548 15.7703C18.7334 15.7122 19.0948 15.5748 19.4143 15.3677C20.1286 14.9266 20.7821 14.3977 21.3588 13.7937C21.4024 13.7449 21.5769 13.5863 21.8761 13.2995C22.1753 13.0128 22.437 12.7749 22.6489 12.5675C23.3594 11.8415 23.7147 11.3168 23.7147 10.9996C23.7147 10.6824 23.4654 10.5237 22.9668 10.5237Z" fill="white"/>
<path id="Vector_5" fill-rule="evenodd" clip-rule="evenodd" d="M37.8 11.1887C37.8 11.7377 37.3222 12.6426 36.3665 13.9035C35.9975 14.3123 35.7119 14.7865 35.5251 15.3005C35.5251 15.4835 35.6186 15.5689 35.8056 15.5689C36.1015 15.5303 36.3814 15.4144 36.6158 15.2334C37.5376 14.612 38.403 13.9139 39.2023 13.147C39.3269 13.025 39.408 13.0006 39.4516 13.0555C39.4883 13.092 39.5123 13.139 39.5201 13.1897C39.3733 13.3776 39.2061 13.5494 39.0216 13.7021C38.6912 14.0133 38.3235 14.3122 37.9184 14.6782C37.4471 15.0712 36.9425 15.4243 36.4101 15.7337C35.9682 16.0441 35.4497 16.2336 34.9081 16.2827C34.0917 16.2827 33.6616 15.9228 33.6616 15.2151C33.668 14.9137 33.7141 14.6143 33.7987 14.3244C33.9899 13.7428 34.8437 12.6243 36.3603 10.969C36.5129 10.8437 36.6183 10.6718 36.6594 10.481C36.6594 10.359 36.5036 10.298 36.2045 10.298C35.6603 10.419 35.1629 10.6899 34.771 11.0788C34.4737 11.3234 34.1927 11.5863 33.9296 11.8658C33.478 12.3826 33.0871 12.9474 32.7642 13.5496C32.3767 14.2011 32.0492 14.885 31.7857 15.5933C31.7567 15.711 31.6867 15.815 31.5877 15.8874C31.4887 15.9598 31.3669 15.9961 31.2434 15.9899H31.0128C30.7261 15.9167 30.6139 15.7825 30.6763 15.5872C31.8314 13.513 32.5335 12.2176 32.7828 11.7011C32.959 11.3525 33.0728 10.977 33.1194 10.5908C33.1194 10.3651 33.0321 10.2553 32.8452 10.2553C32.0474 10.2553 30.8944 11.5364 29.3986 14.1048C29.0059 14.7235 28.5642 15.3109 28.0773 15.8618C27.9703 16.0065 27.8345 16.1286 27.6782 16.2209C27.5219 16.3131 27.3481 16.3736 27.1674 16.3986H27.0801C26.6488 16.3826 26.2376 16.2159 25.9209 15.9289C26.0144 15.7947 26.2325 15.5079 26.5815 15.0626C27.3037 14.2105 27.9778 13.3205 28.6009 12.3966C28.0763 12.9219 27.5228 13.4188 26.943 13.8851C26.7934 14.0031 26.7062 14.0031 26.6813 13.8851C26.6699 13.8348 26.6732 13.7824 26.6908 13.7339C26.7085 13.6853 26.7397 13.6426 26.781 13.6106L27.236 13.208L27.6598 12.8419L28.0462 12.5003C28.1936 12.3702 28.333 12.2317 28.4637 12.0855C28.8112 11.7063 29.1241 11.298 29.3986 10.8653C29.4701 10.7017 29.5041 10.5247 29.4983 10.3468C29.5048 10.2863 29.4981 10.2251 29.4788 10.1673C29.4594 10.1095 29.4279 10.0563 29.3862 10.0112C29.3555 9.99067 29.3315 9.9619 29.3172 9.92835C29.3028 9.89481 29.2986 9.85792 29.3051 9.82211C29.3007 9.79792 29.3024 9.77305 29.3099 9.74961C29.3174 9.72618 29.3306 9.70487 29.3483 9.68749C29.3661 9.67012 29.3879 9.6572 29.4118 9.64984C29.4358 9.64247 29.4612 9.64088 29.4859 9.64519C29.5567 9.64583 29.6266 9.66035 29.6915 9.68789C29.9362 9.8162 30.1349 10.0148 30.2608 10.2569C30.3867 10.499 30.4338 10.7731 30.3958 11.0422C30.388 11.5059 30.3038 11.9653 30.1465 12.4027C30.4457 11.939 30.7698 11.4876 31.1188 11.0422C31.742 10.2614 32.3653 9.86481 32.9885 9.86481C33.404 9.86481 33.6118 10.1027 33.6118 10.5786C33.4628 11.427 33.1383 12.2366 32.6582 12.9578C33.2939 12.1444 33.7863 11.5588 34.1353 11.2009C34.4182 10.8554 34.7693 10.5694 35.1676 10.3597C35.566 10.1501 36.0034 10.0212 36.4538 9.98073C36.6097 9.95668 36.769 9.96372 36.9221 10.0014C37.0752 10.0392 37.2189 10.1068 37.3447 10.2002C37.4704 10.2937 37.5755 10.411 37.6538 10.5452C37.732 10.6794 37.7818 10.8277 37.8 10.9812V11.1887Z" fill="white"/>
</g>
</g>
</g>
<defs>
<clipPath id="clip0_718_680">
<rect width="40" height="24" fill="white"/>
</clipPath>
</defs>
</svg>
